<?xml version="1.0" encoding="UTF-8"?>
<svg version="1.1" xmlns="http://www.w3.org/2000/svg" width="577" height="433">
<path d="M0 0 C1.09199707 -0.0025882 2.18399414 -0.00517639 3.30908203 -0.00784302 C15.18128782 -0.02997771 27.0507628 0.06855133 38.91796875 0.4296875 C39.90408142 0.44957733 40.89019409 0.46946716 41.90618896 0.48995972 C50.11799178 0.79191015 55.29011685 2.91967678 61.75 8.125 C63.16459632 9.06562104 64.58097931 10.00356693 66 10.9375 C66.9075 11.659375 67.815 12.38125 68.75 13.125 C68.75 13.785 68.75 14.445 68.75 15.125 C69.74 15.455 70.73 15.785 71.75 16.125 C71.75 16.785 71.75 17.445 71.75 18.125 C72.41 18.125 73.07 18.125 73.75 18.125 C83.3786855 32.25480596 87.28054516 46.78292997 84.0625 63.875 C81.71028911 72.71212564 76.61953965 81.17617472 70.75 88.125 C70.09 88.125 69.43 88.125 68.75 88.125 C68.48832031 88.70378906 68.22664063 89.28257812 67.95703125 89.87890625 C64.82449868 95.70805261 58.49242321 103.30725158 52.5625 106.1875 C50.57107843 106.99202161 50.57107843 106.99202161 49.75 109.125 C48.48577236 111.65345528 47.22154472 111.88922764 44.75 113.125 C44.47800781 113.70507812 44.20601563 114.28515625 43.92578125 114.8828125 C42.38473616 117.82154964 40.32483113 119.70214904 37.9375 122 C31.15747352 128.25053503 31.15747352 128.25053503 26.75 136.125 C27.41 136.125 28.07 136.125 28.75 136.125 C30.16235352 137.56298828 30.16235352 137.56298828 31.81640625 139.5703125 C36.56128372 145.15295547 41.80088639 150.19217733 47.04882812 155.296875 C47.78423828 156.02132812 48.51964844 156.74578125 49.27734375 157.4921875 C50.27882446 158.46841064 50.27882446 158.46841064 51.30053711 159.46435547 C52.75 161.125 52.75 161.125 52.75 163.125 C53.61625 163.50205078 53.61625 163.50205078 54.5 163.88671875 C59.50064149 166.6388079 63.41795854 171.45043359 66.9375 175.875 C68.70872067 178.23972344 68.70872067 178.23972344 71.25 180.125 C73.88802151 182.23541721 75.67642062 184.46822642 77.75 187.125 C79.3954378 188.81262851 81.06288577 190.4790349 82.75 192.125 C83.48734375 192.86363281 84.2246875 193.60226562 84.984375 194.36328125 C87.00666329 196.3827132 89.03853493 198.38900935 91.08203125 200.38671875 C92.24224929 201.52858306 93.40240471 202.67051099 94.5625 203.8125 C95.15998047 204.39322266 95.75746094 204.97394531 96.37304688 205.57226562 C97.87014673 207.05225576 99.31488731 208.58482782 100.75 210.125 C100.75 210.785 100.75 211.445 100.75 212.125 C101.74 212.455 102.73 212.785 103.75 213.125 C106.48814047 215.66278873 108.67595707 218.0139356 110.75 221.125 C110.75 222.445 110.75 223.765 110.75 225.125 C103.50938804 225.25230987 96.26906725 225.33956493 89.02758789 225.3996582 C86.56686618 225.42472306 84.10621834 225.45878402 81.64575195 225.50219727 C78.09828411 225.56319965 74.55180494 225.59129147 71.00390625 225.61328125 C69.9129213 225.63908768 68.82193634 225.6648941 67.69789124 225.69148254 C60.42371797 225.694123 55.72007786 224.27227638 49.75 220.125 C48.76 219.465 47.77 218.805 46.75 218.125 C46.75 217.465 46.75 216.805 46.75 216.125 C45.76 215.795 44.77 215.465 43.75 215.125 C43.75 214.465 43.75 213.805 43.75 213.125 C42.6671875 212.7846875 42.6671875 212.7846875 41.5625 212.4375 C38.16284572 210.85099467 36.35394885 208.82440152 33.75 206.125 C26.67900834 198.79854412 26.67900834 198.79854412 19.0625 192.0625 C18.299375 191.423125 17.53625 190.78375 16.75 190.125 C16.75 189.465 16.75 188.805 16.75 188.125 C15.76 187.795 14.77 187.465 13.75 187.125 C13.75 186.465 13.75 185.805 13.75 185.125 C13.13125 184.8775 12.5125 184.63 11.875 184.375 C9.34641373 182.88759631 9.03160996 181.68821991 7.75 179.125 C6.41724287 178.45718217 5.08380851 177.79071547 3.75 177.125 C2.36365229 175.9967631 1.00985478 174.82760397 -0.3125 173.625 C-2.58432007 171.56684439 -4.68707257 169.83361829 -7.25 168.125 C-8.03375 168.95 -8.8175 169.775 -9.625 170.625 C-12.25 173.125 -12.25 173.125 -14.25 173.125 C-14.49129639 173.70403076 -14.73259277 174.28306152 -14.98120117 174.87963867 C-16.49512795 177.55879676 -18.20896201 179.05465342 -20.55078125 181.05078125 C-24.73971243 184.72785741 -28.74110207 188.52515965 -32.66796875 192.48046875 C-33.2198587 193.03566193 -33.77174866 193.5908551 -34.34036255 194.16287231 C-36.04141132 195.87744514 -37.73989057 197.59452217 -39.4375 199.3125 C-53.95168018 213.99919909 -53.95168018 213.99919909 -59.25 218.125 C-59.91 218.125 -60.57 218.125 -61.25 218.125 C-61.58 219.115 -61.91 220.105 -62.25 221.125 C-68.277221 226.80780837 -74.249615 227.59666191 -82.27734375 227.4375 C-88.25047474 226.80957559 -91.84833118 224.4657267 -96.125 220.375 C-103.52864654 209.05177588 -101.45228618 192.12609369 -101.4375 179.0625 C-101.43756042 178.2443985 -101.43762085 177.426297 -101.43768311 176.58340454 C-101.3974931 138.41739007 -101.3974931 138.41739007 -94.25 128.125 C-93.734375 127.361875 -93.21875 126.59875 -92.6875 125.8125 C-91.9759375 124.9771875 -91.9759375 124.9771875 -91.25 124.125 C-90.59 124.125 -89.93 124.125 -89.25 124.125 C-88.92 123.135 -88.59 122.145 -88.25 121.125 C-87.59 121.125 -86.93 121.125 -86.25 121.125 C-85.92 120.135 -85.59 119.145 -85.25 118.125 C-84.59 118.125 -83.93 118.125 -83.25 118.125 C-82.9096875 117.2896875 -82.9096875 117.2896875 -82.5625 116.4375 C-80.88281165 113.4780491 -78.70866715 111.46373216 -76.25 109.125 C-75.4146875 108.2278125 -75.4146875 108.2278125 -74.5625 107.3125 C-73.25 106.125 -73.25 106.125 -71.25 106.125 C-70.92 105.135 -70.59 104.145 -70.25 103.125 C-69.59 103.125 -68.93 103.125 -68.25 103.125 C-67.92 102.135 -67.59 101.145 -67.25 100.125 C-66.59 100.125 -65.93 100.125 -65.25 100.125 C-65.25 99.465 -65.25 98.805 -65.25 98.125 C-63.5 96.4375 -63.5 96.4375 -61.25 95.125 C-59 95.4375 -59 95.4375 -57.25 96.125 C-56.49136301 99.52507285 -56.10763977 102.70977244 -56.04467773 106.19067383 C-56.02473251 107.17131302 -56.00478729 108.15195221 -55.98423767 109.16230774 C-55.95916893 110.73132088 -55.95916893 110.73132088 -55.93359375 112.33203125 C-55.91281265 113.41256271 -55.89203156 114.49309418 -55.87062073 115.60636902 C-55.80535964 119.05001611 -55.74634925 122.49373795 -55.6875 125.9375 C-55.64429249 128.27539828 -55.60067749 130.61328907 -55.55664062 132.95117188 C-55.44970228 138.67570278 -55.34789273 144.40030765 -55.25 150.125 C-54.59 150.125 -53.93 150.125 -53.25 150.125 C-53.25 149.465 -53.25 148.805 -53.25 148.125 C-51.67578125 146.57421875 -51.67578125 146.57421875 -49.5625 144.8125 C-47.05197706 142.68855316 -44.64176579 140.56998656 -42.375 138.1875 C-40.25 136.125 -40.25 136.125 -38.25 136.125 C-38.0025 135.50625 -37.755 134.8875 -37.5 134.25 C-36.02229238 131.73789704 -34.81044823 131.36392656 -32.25 130.125 C-31.92 129.135 -31.59 128.145 -31.25 127.125 C-30.59 127.125 -29.93 127.125 -29.25 127.125 C-28.92 126.135 -28.59 125.145 -28.25 124.125 C-27.59 124.125 -26.93 124.125 -26.25 124.125 C-26.0025 123.50625 -25.755 122.8875 -25.5 122.25 C-24.02229238 119.73789704 -22.81044823 119.36392656 -20.25 118.125 C-19.92 117.135 -19.59 116.145 -19.25 115.125 C-18.59 115.125 -17.93 115.125 -17.25 115.125 C-16.92 114.135 -16.59 113.145 -16.25 112.125 C-15.59 112.125 -14.93 112.125 -14.25 112.125 C-13.92 111.135 -13.59 110.145 -13.25 109.125 C-12.59 109.125 -11.93 109.125 -11.25 109.125 C-10.92 108.135 -10.59 107.145 -10.25 106.125 C-9.59 106.125 -8.93 106.125 -8.25 106.125 C-7.92 105.135 -7.59 104.145 -7.25 103.125 C-5.0002186 100.63199899 -3.1023374 98.53899245 -0.0625 97.0625 C1.92892157 96.25797839 1.92892157 96.25797839 2.75 94.125 C4.01422764 91.59654472 5.27845528 91.36077236 7.75 90.125 C8.41807574 88.79237213 9.08454353 87.45893774 9.75 86.125 C11.23046875 84.38574219 11.23046875 84.38574219 12.9375 82.671875 C13.55367188 82.053125 14.16984375 81.434375 14.8046875 80.796875 C15.44664062 80.16265625 16.08859375 79.5284375 16.75 78.875 C17.39195312 78.2253125 18.03390625 77.575625 18.6953125 76.90625 C19.31148438 76.29265625 19.92765625 75.6790625 20.5625 75.046875 C21.12582031 74.48581055 21.68914062 73.92474609 22.26953125 73.34667969 C23.75 72.125 23.75 72.125 25.75 72.125 C25.75 71.135 25.75 70.145 25.75 69.125 C26.41 69.125 27.07 69.125 27.75 69.125 C28.08 68.135 28.41 67.145 28.75 66.125 C30.39302953 64.43502677 32.06471312 62.77283606 33.75 61.125 C38.27272556 56.70043327 38.27272556 56.70043327 40.25 50.875 C39.90090893 47.92137631 39.90090893 47.92137631 37.75 45.125 C34.62905539 44.08468513 32.46076827 43.99819705 29.18725586 43.99560547 C27.47287575 43.99087723 27.47287575 43.99087723 25.72386169 43.98605347 C23.86314781 43.98908981 23.86314781 43.98908981 21.96484375 43.9921875 C20.68001602 43.99123077 19.39518829 43.99027405 18.07142639 43.98928833 C15.3401673 43.98781184 12.60894084 43.98995912 9.87768555 43.99462891 C6.4318258 44.0002422 2.98604467 43.9970074 -0.45981216 43.9911871 C-32.7270115 41.67684125 -32.7270115 41.67684125 -61.53125 51.6875 C-63.25 53.125 -63.25 53.125 -65.40625 54.125 C-67.60274367 55.04463579 -67.60274367 55.04463579 -68.25 58.125 C-69.78564453 59.63500977 -69.78564453 59.63500977 -71.7578125 61.25390625 C-77.32297424 65.97349121 -82.33794272 71.19723448 -87.421875 76.42382812 C-88.14632813 77.15923828 -88.87078125 77.89464844 -89.6171875 78.65234375 C-90.26800293 79.31999756 -90.91881836 79.98765137 -91.58935547 80.67553711 C-93.25 82.125 -93.25 82.125 -95.25 82.125 C-95.58 83.115 -95.91 84.105 -96.25 85.125 C-96.91 85.125 -97.57 85.125 -98.25 85.125 C-98.58 86.115 -98.91 87.105 -99.25 88.125 C-99.91 88.125 -100.57 88.125 -101.25 88.125 C-101.58 89.115 -101.91 90.105 -102.25 91.125 C-102.91 91.125 -103.57 91.125 -104.25 91.125 C-104.58 92.115 -104.91 93.105 -105.25 94.125 C-105.91 94.125 -106.57 94.125 -107.25 94.125 C-107.58 95.115 -107.91 96.105 -108.25 97.125 C-108.91 97.125 -109.57 97.125 -110.25 97.125 C-110.58 98.115 -110.91 99.105 -111.25 100.125 C-111.91 100.125 -112.57 100.125 -113.25 100.125 C-113.58 101.115 -113.91 102.105 -114.25 103.125 C-114.91 103.125 -115.57 103.125 -116.25 103.125 C-116.58 104.115 -116.91 105.105 -117.25 106.125 C-117.91 106.125 -118.57 106.125 -119.25 106.125 C-119.58 107.115 -119.91 108.105 -120.25 109.125 C-120.91 109.125 -121.57 109.125 -122.25 109.125 C-122.45778076 109.65875244 -122.66556152 110.19250488 -122.87963867 110.74243164 C-124.79821079 114.07814255 -127.45153657 116.57165778 -130.17578125 119.24609375 C-130.7603862 119.8278688 -131.34499115 120.40964386 -131.9473114 121.00904846 C-133.81438702 122.86495842 -135.68828434 124.71380352 -137.5625 126.5625 C-138.8123092 127.80227058 -140.06166318 129.04250025 -141.31054688 130.28320312 C-143.6160834 132.57244394 -145.92425764 134.85895135 -148.2355957 137.14233398 C-150.91736135 139.79300028 -153.58615399 142.45631112 -156.25 145.125 C-157.02512939 145.8986792 -157.80025879 146.6723584 -158.59887695 147.46948242 C-161.28774126 150.16280382 -163.96666938 152.8657007 -166.64408875 155.57038879 C-169.48885165 158.44187558 -172.3388922 161.30809957 -175.18920898 164.17407227 C-176.69521403 165.69021656 -178.19943108 167.20813886 -179.7019043 168.7277832 C-181.87344737 170.9234519 -184.05126866 173.11271538 -186.23046875 175.30078125 C-186.90442184 175.98505692 -187.57837494 176.66933258 -188.27275085 177.37434387 C-188.8971254 177.99886948 -189.52149994 178.62339508 -190.16479492 179.2668457 C-190.71374924 179.82024124 -191.26270355 180.37363678 -191.82829285 180.94380188 C-193.25 182.125 -193.25 182.125 -195.25 182.125 C-195.58 183.115 -195.91 184.105 -196.25 185.125 C-197.640625 186.5625 -197.640625 186.5625 -199.5 188.125 C-200.21929687 188.7334375 -200.93859375 189.341875 -201.6796875 189.96875 C-202.52789062 190.6803125 -203.37609375 191.391875 -204.25 192.125 C-205.27454646 193.00913321 -206.29791885 193.8946282 -207.3203125 194.78125 C-234.5330817 218.27800689 -266.95319524 231.38285949 -303.31933594 228.98876953 C-318.84871327 227.73891312 -333.12932426 223.87211716 -346.25 215.125 C-346.25 214.465 -346.25 213.805 -346.25 213.125 C-346.83007812 213.05023438 -347.41015625 212.97546875 -348.0078125 212.8984375 C-355.06932254 210.4625856 -359.76124926 199.98992332 -363 193.71484375 C-369.57299534 180.09641903 -370.76792565 162.63230899 -366.25 148.125 C-364.70691802 144.06654928 -363.0321683 140.0838624 -361.25 136.125 C-360.59 136.125 -359.93 136.125 -359.25 136.125 C-358.9096875 134.83722656 -358.9096875 134.83722656 -358.5625 133.5234375 C-357.06611203 129.6488615 -354.92975579 126.85086028 -352.25 123.75 C-351.79882812 123.20472656 -351.34765625 122.65945312 -350.8828125 122.09765625 C-349.72295515 120.72847553 -348.49129204 119.42080824 -347.25 118.125 C-346.59 118.125 -345.93 118.125 -345.25 118.125 C-345.0025 117.568125 -344.755 117.01125 -344.5 116.4375 C-343.02075182 113.70089087 -341.31532561 111.44849131 -339.25 109.125 C-338.59 109.125 -337.93 109.125 -337.25 109.125 C-336.755 107.64 -336.755 107.64 -336.25 106.125 C-335.59 106.125 -334.93 106.125 -334.25 106.125 C-333.755 104.64 -333.755 104.64 -333.25 103.125 C-332.59 103.125 -331.93 103.125 -331.25 103.125 C-330.755 101.64 -330.755 101.64 -330.25 100.125 C-329.59 100.125 -328.93 100.125 -328.25 100.125 C-327.87875 99.196875 -327.87875 99.196875 -327.5 98.25 C-326.01259631 95.72141373 -324.81321991 95.40660996 -322.25 94.125 C-321.92 93.465 -321.59 92.805 -321.25 92.125 C-319.98577236 89.59654472 -318.72154472 89.36077236 -316.25 88.125 C-315.96229736 87.53325989 -315.67459473 86.94151978 -315.37817383 86.33184814 C-314.0106518 83.65680519 -312.32121397 81.9420147 -310.19921875 79.81542969 C-309.36495361 78.97486023 -308.53068848 78.13429077 -307.67114258 77.26824951 C-306.76904053 76.37019592 -305.86693848 75.47214233 -304.9375 74.546875 C-304.01283936 73.6203009 -303.08817871 72.69372681 -302.13549805 71.73907471 C-300.18178301 69.7824163 -298.22450889 67.82940857 -296.26464844 65.87890625 C-293.74915795 63.37484146 -291.24279451 60.86186276 -288.73899841 58.3461113 C-286.3516736 55.94984056 -283.95677812 53.5611985 -281.5625 51.171875 C-280.20934692 49.81264923 -280.20934692 49.81264923 -278.82885742 48.42596436 C-277.99459229 47.59800354 -277.16032715 46.77004272 -276.30078125 45.91699219 C-275.56512939 45.18293152 -274.82947754 44.44887085 -274.0715332 43.69256592 C-272.25 42.125 -272.25 42.125 -270.25 42.125 C-269.87875 41.196875 -269.87875 41.196875 -269.5 40.25 C-268.01259631 37.72141373 -266.81321991 37.40660996 -264.25 36.125 C-263.755 35.135 -263.755 35.135 -263.25 34.125 C-261.98577236 31.59654472 -260.72154472 31.36077236 -258.25 30.125 C-257.92 29.465 -257.59 28.805 -257.25 28.125 C-255.98577236 25.59654472 -254.72154472 25.36077236 -252.25 24.125 C-251.9715625 23.53203125 -251.693125 22.9390625 -251.40625 22.328125 C-249.94726226 19.54816187 -248.10524325 17.93966129 -245.75 15.875 C-244.9559375 15.16859375 -244.161875 14.4621875 -243.34375 13.734375 C-241.25 12.125 -241.25 12.125 -239.25 12.125 C-238.92 11.135 -238.59 10.145 -238.25 9.125 C-236.24609375 7.58984375 -236.24609375 7.58984375 -233.6875 6.0625 C-232.86121094 5.55589844 -232.03492188 5.04929687 -231.18359375 4.52734375 C-224.36883433 1.26968912 -217.87558889 0.83267128 -210.45703125 0.89453125 C-209.09344734 0.89521858 -209.09344734 0.89521858 -207.70231628 0.8959198 C-205.79379967 0.89892321 -203.88528509 0.90675163 -201.97680664 0.91918945 C-199.06062114 0.9375118 -196.14475287 0.93969833 -193.22851562 0.93945312 C-191.36718476 0.94436693 -189.50585604 0.95019465 -187.64453125 0.95703125 C-186.77673538 0.95814407 -185.90893951 0.9592569 -185.0148468 0.96040344 C-180.96546889 0.99211488 -177.2006017 1.11402918 -173.25 2.125 C-173.25 3.445 -173.25 4.765 -173.25 6.125 C-174.86736259 7.5177289 -176.5425002 8.84437515 -178.25 10.125 C-179.60386936 11.77502828 -180.93678142 13.4424387 -182.25 15.125 C-186.61363636 19.81590909 -186.61363636 19.81590909 -189.4375 21.1875 C-191.83293146 22.42651627 -192.14027738 23.69748176 -193.25 26.125 C-195.89564911 29.77417119 -198.71098461 32.36284165 -202.25 35.125 C-203.93762851 36.7704378 -205.6040349 38.43788577 -207.25 40.125 C-209.76090797 42.63590797 -212.27076025 45.1452539 -214.8125 47.625 C-217.27015888 50.05415533 -217.27015888 50.05415533 -219.25 52.6875 C-221.25 55.125 -221.25 55.125 -223.5625 56.9375 C-226.61435209 59.42156565 -229.00038727 62.18795181 -231.5546875 65.16796875 C-235.12828626 69.29325211 -239.00093784 72.72575027 -243.25 76.125 C-244.93762851 77.7704378 -246.6040349 79.43788577 -248.25 81.125 C-250.76090797 83.63590797 -253.27076025 86.1452539 -255.8125 88.625 C-258.27015888 91.05415533 -258.27015888 91.05415533 -260.25 93.6875 C-262.25 96.125 -262.25 96.125 -264.5625 97.9375 C-267.61056756 100.41848522 -269.99398762 103.18158123 -272.546875 106.15625 C-278.30204461 112.80901487 -278.30204461 112.80901487 -282.25 114.125 C-282.92420262 115.45453866 -283.58926863 116.78871549 -284.25 118.125 C-285.78639643 119.81333228 -287.38180948 121.44863358 -289.01171875 123.046875 C-289.48060013 123.51055481 -289.94948151 123.97423462 -290.43257141 124.45196533 C-291.92951598 125.93117025 -293.43295749 127.40352701 -294.9375 128.875 C-302.57074369 136.36487884 -310.1368142 143.84357337 -316.625 152.375 C-317.10710937 152.99890625 -317.58921875 153.6228125 -318.0859375 154.265625 C-321.22018706 159.2720102 -320.66415813 165.43446723 -320.25 171.125 C-318.74493516 176.82274546 -315.13739217 179.00056349 -310.26806641 181.84399414 C-304.75542733 184.1838111 -299.2734729 183.86845423 -293.375 183.6875 C-292.18519531 183.68556641 -290.99539063 183.68363281 -289.76953125 183.68164062 C-269.09239851 183.37656817 -252.89509781 174.58744026 -238.0625 160.62890625 C-236.25 159.125 -236.25 159.125 -234.25 159.125 C-234.0025 158.54234375 -233.755 157.9596875 -233.5 157.359375 C-232.06474554 154.79385764 -230.47336987 153.28775202 -228.25 151.375 C-227.54875 150.76140625 -226.8475 150.1478125 -226.125 149.515625 C-224.25 148.125 -224.25 148.125 -222.25 148.125 C-222.0025 147.50625 -221.755 146.8875 -221.5 146.25 C-220.01259631 143.72141373 -218.81321991 143.40660996 -216.25 142.125 C-215.92 141.465 -215.59 140.805 -215.25 140.125 C-213.99191204 137.60882409 -212.7199603 137.32014208 -210.25 136.125 C-209.92 135.135 -209.59 134.145 -209.25 133.125 C-208.59 133.125 -207.93 133.125 -207.25 133.125 C-206.92 132.135 -206.59 131.145 -206.25 130.125 C-205.59 130.125 -204.93 130.125 -204.25 130.125 C-203.92 129.135 -203.59 128.145 -203.25 127.125 C-202.59 127.125 -201.93 127.125 -201.25 127.125 C-201.25 126.465 -201.25 125.805 -201.25 125.125 C-200.02294922 123.92358398 -200.02294922 123.92358398 -198.1796875 122.43359375 C-193.96808147 118.85400704 -190.07831355 115.02457526 -186.1953125 111.09765625 C-185.5637323 110.46040619 -184.9321521 109.82315613 -184.28143311 109.16659546 C-181.63397936 106.49202348 -178.99070812 103.81338573 -176.3515625 101.13061523 C-174.40794923 99.1569875 -172.4583145 97.18947271 -170.5078125 95.22265625 C-169.90889191 94.61027603 -169.30997131 93.99789581 -168.69290161 93.36695862 C-167.24944092 91.91470448 -165.75422372 90.51421987 -164.25 89.125 C-163.59 89.125 -162.93 89.125 -162.25 89.125 C-161.8468457 88.23506348 -161.8468457 88.23506348 -161.43554688 87.32714844 C-160.24709268 85.11959967 -159.04257611 83.65957118 -157.28125 81.890625 C-156.71019531 81.31699219 -156.13914062 80.74335938 -155.55078125 80.15234375 C-154.95652344 79.56582031 -154.36226562 78.97929687 -153.75 78.375 C-153.15574219 77.77300781 -152.56148437 77.17101562 -151.94921875 76.55078125 C-151.37816406 75.98230469 -150.80710937 75.41382813 -150.21875 74.828125 C-149.69732422 74.30895508 -149.17589844 73.78978516 -148.63867188 73.25488281 C-147.25 72.125 -147.25 72.125 -145.25 72.125 C-145.0025 71.50625 -144.755 70.8875 -144.5 70.25 C-143.01259631 67.72141373 -141.81321991 67.40660996 -139.25 66.125 C-138.92 65.465 -138.59 64.805 -138.25 64.125 C-136.98577236 61.59654472 -135.72154472 61.36077236 -133.25 60.125 C-132.92 59.465 -132.59 58.805 -132.25 58.125 C-130.98577236 55.59654472 -129.72154472 55.36077236 -127.25 54.125 C-126.56731862 52.79979497 -125.8992959 51.46687818 -125.25 50.125 C-124.26 49.795 -123.27 49.465 -122.25 49.125 C-121.96125 48.5475 -121.6725 47.97 -121.375 47.375 C-117.94021947 40.50543893 -109.58044836 34.8535246 -103.91796875 29.66503906 C-102.38032778 28.24533192 -100.85933913 26.81035582 -99.34375 25.3671875 C-70.45399556 -1.77921969 -37.06757782 0.04006339 0 0 Z " fill="#21211F" transform="translate(412.25,111.875)"/>
<path d="M0 0 C4.71144293 0.0961519 7.12553079 0.69568265 10.5 4.0625 C11.68493917 5.35852721 12.85126611 6.67177644 14 8 C14.5775 8.64710938 15.155 9.29421875 15.75 9.9609375 C17.51862216 11.95853307 19.26177063 13.97592846 21 16 C25.37022769 21.06421235 29.79790677 25.94276337 34.640625 30.56640625 C36.12859545 32.00918133 37.56813064 33.50153207 39 35 C39 35.66 39 36.32 39 37 C39.99 37.33 40.98 37.66 42 38 C42.49173102 40.70452061 42.39695462 42.41325563 40.83984375 44.71484375 C37.74722611 48.32948893 34.36215294 51.63784706 31 55 C29.99119056 56.15905765 28.99164137 57.32622042 28 58.5 C25.4668352 61.48964881 22.8061757 64.260638 20 67 C18.58028075 68.39272839 17.16381539 69.78877873 15.75 71.1875 C15.06421875 71.86167969 14.3784375 72.53585937 13.671875 73.23046875 C11.92550889 74.90798995 11.92550889 74.90798995 11 77 C10.34 77 9.68 77 9 77 C8.67 77.99 8.34 78.98 8 80 C4.9375 81.1875 4.9375 81.1875 2 82 C-1.18485874 79.3393439 -2.84074064 77.84594216 -3.62145996 73.69897461 C-3.61940552 72.44608643 -3.61735107 71.19319824 -3.61523438 69.90234375 C-3.62078339 69.207388 -3.6263324 68.51243225 -3.63204956 67.79641724 C-3.64381765 65.50940008 -3.61960341 63.2243772 -3.59375 60.9375 C-3.59203802 59.34236745 -3.59210547 57.7472321 -3.59387207 56.15209961 C-3.59222046 52.81303905 -3.57355278 49.4746512 -3.54199219 46.13574219 C-3.50231457 41.86175065 -3.49794782 37.58863967 -3.50545502 33.3144989 C-3.50852869 30.02185031 -3.49639017 26.72939866 -3.47932434 23.4367981 C-3.47230709 21.86118811 -3.46916826 20.2855558 -3.47001648 18.70993042 C-3.468213 16.50543094 -3.44678628 14.30197464 -3.41992188 12.09765625 C-3.41150269 10.84476807 -3.4030835 9.59187988 -3.39440918 8.30102539 C-2.97349188 4.77813913 -2.04812294 2.85783808 0 0 Z " fill="#232221" transform="translate(496,205)"/>
<path d="M0 0 C2.9375 1.625 2.9375 1.625 6 4 C6.495 6.97 6.495 6.97 7 10 C-10.16 10 -27.32 10 -45 10 C-45 9.67 -45 9.34 -45 9 C-30.81 8.67 -16.62 8.34 -2 8 C-2 6.02 -2 4.04 -2 2 C-1.34 2 -0.68 2 0 2 C0 1.34 0 0.68 0 0 Z " fill="#413D3E" transform="translate(516,327)"/>
<path d="M0 0 C0.33 0 0.66 0 1 0 C1.33 1.98 1.66 3.96 2 6 C2.33 6 2.66 6 3 6 C3.02465746 10.1117256 3.04283959 14.22342278 3.05493164 18.33520508 C3.0599708 19.73495228 3.06680216 21.1346942 3.07543945 22.53442383 C3.0875232 24.54245777 3.09269807 26.55052957 3.09765625 28.55859375 C3.10289307 29.76829834 3.10812988 30.97800293 3.11352539 32.22436523 C3 35 3 35 2 36 C1.76518307 38.18292774 1.58636677 40.37203174 1.4375 42.5625 C1.35371094 43.76003906 1.26992188 44.95757812 1.18359375 46.19140625 C1.12300781 47.11824219 1.06242187 48.04507813 1 49 C0.67 49 0.34 49 0 49 C0 32.83 0 16.66 0 0 Z " fill="#636162" transform="translate(493,233)"/>
<path d="M0 0 C1.32 0.33 2.64 0.66 4 1 C3.13392217 5.89183296 0.30429326 7.76360289 -3.375 10.8125 C-3.96539062 11.32748047 -4.55578125 11.84246094 -5.1640625 12.37304688 C-6.8984375 13.83203125 -6.8984375 13.83203125 -10 16 C-10.99 15.67 -11.98 15.34 -13 15 C-12.34 13.68 -11.68 12.36 -11 11 C-10.34 11 -9.68 11 -9 11 C-9 10.01 -9 9.02 -9 8 C-8.071875 7.79375 -7.14375 7.5875 -6.1875 7.375 C-2.73995905 6.25553808 -2.73995905 6.25553808 -1.125 2.875 C-0.75375 1.92625 -0.3825 0.9775 0 0 Z " fill="#353232" transform="translate(205,299)"/>
<path d="M0 0 C0.66 0.33 1.32 0.66 2 1 C2 1.66 2 2.32 2 3 C2.66 3.33 3.32 3.66 4 4 C3.236875 4.7425 2.47375 5.485 1.6875 6.25 C-0.95571199 8.823554 -0.95571199 8.823554 -2.6875 11.3125 C-3.3371875 12.1478125 -3.3371875 12.1478125 -4 13 C-4.66 13 -5.32 13 -6 13 C-5.67 11.35 -5.34 9.7 -5 8 C-4.01 7.67 -3.02 7.34 -2 7 C-2.33 5.35 -2.66 3.7 -3 2 C-2.01 1.34 -1.02 0.68 0 0 Z " fill="#454442" transform="translate(189,160)"/>
<path d="M0 0 C0.66 0.99 1.32 1.98 2 3 C0.37660195 4.70884005 -1.29319053 6.37446717 -3 8 C-3.66 8 -4.32 8 -5 8 C-5.33 8.99 -5.66 9.98 -6 11 C-8.0625 12.1875 -8.0625 12.1875 -10 13 C-9.75 11.125 -9.75 11.125 -9 9 C-6.9375 7.75 -6.9375 7.75 -5 7 C-5 6.01 -5 5.02 -5 4 C-4.360625 3.896875 -3.72125 3.79375 -3.0625 3.6875 C-2.381875 3.460625 -1.70125 3.23375 -1 3 C-0.67 2.01 -0.34 1.02 0 0 Z " fill="#575654" transform="translate(222,286)"/>
<path d="M0 0 C0.33 1.65 0.66 3.3 1 5 C0.030625 5.12375 -0.93875 5.2475 -1.9375 5.375 C-3.4534375 5.684375 -3.4534375 5.684375 -5 6 C-5.33 6.66 -5.66 7.32 -6 8 C-5.34 8.33 -4.68 8.66 -4 9 C-4.66 9.66 -5.32 10.32 -6 11 C-6.66 10.34 -7.32 9.68 -8 9 C-8.66 8.67 -9.32 8.34 -10 8 C-8.71451591 6.66070495 -7.42141845 5.32871357 -6.125 4 C-5.04605469 2.88625 -5.04605469 2.88625 -3.9453125 1.75 C-2 0 -2 0 0 0 Z " fill="#636262" transform="translate(267,184)"/>
<path d="M0 0 C0.66 0.99 1.32 1.98 2 3 C-0.85276137 5.93200474 -3.65079784 8.64315404 -7 11 C-7 9.02 -7 7.04 -7 5 C-6.01 5 -5.02 5 -4 5 C-3.34 4.01 -2.68 3.02 -2 2 C-1.34 2 -0.68 2 0 2 C0 1.34 0 0.68 0 0 Z " fill="#424140" transform="translate(204,148)"/>
<path d="M0 0 C0.66 0.33 1.32 0.66 2 1 C0.15235626 3.55150802 -1.77717773 5.77717773 -4 8 C-4.99 9.485 -4.99 9.485 -6 11 C-7.32 11 -8.64 11 -10 11 C-10 10.34 -10 9.68 -10 9 C-8.3203125 7.34375 -8.3203125 7.34375 -6.125 5.5 C-4.00964496 3.71066742 -1.95980876 1.95980876 0 0 Z " fill="#515050" transform="translate(372,248)"/>
<path d="M0 0 C0.99 0.99 1.98 1.98 3 3 C1.68 4.65 0.36 6.3 -1 8 C-2.32 7.67 -3.64 7.34 -5 7 C-5 6.01 -5 5.02 -5 4 C-2.5 1.8125 -2.5 1.8125 0 0 Z " fill="#1B1B19" transform="translate(308,144)"/>
<path d="M0 0 C5.41538462 -0.36923077 5.41538462 -0.36923077 8.375 1.5 C8.91125 1.995 9.4475 2.49 10 3 C9.01 3.495 9.01 3.495 8 4 C8.33 4.66 8.66 5.32 9 6 C5.06326356 4.68775452 2.77280706 3.08089673 0 0 Z " fill="#4F4D4C" transform="translate(461,330)"/>
<path d="M0 0 C0.66 0.33 1.32 0.66 2 1 C2.375 3.0625 2.375 3.0625 2 6 C0.20822891 8.53572282 -1.84238121 10.77174488 -4 13 C-4.65234375 11.15625 -4.65234375 11.15625 -5 9 C-3.3545622 7.31237149 -1.68711423 5.6459651 0 4 C0 2.68 0 1.36 0 0 Z " fill="#727072" transform="translate(536,242)"/>
<path d="M0 0 C0.33 1.32 0.66 2.64 1 4 C0.01 5.485 0.01 5.485 -1 7 C-1.33 6.67 -1.66 6.34 -2 6 C-3.65 7.32 -5.3 8.64 -7 10 C-7.66 9.67 -8.32 9.34 -9 9 C-6.03 6.03 -3.06 3.06 0 0 Z " fill="#656262" transform="translate(238,211)"/>
<path d="M0 0 C0 0.99 0 1.98 0 3 C-1.30144802 4.04115841 -2.63838689 5.03886134 -4 6 C-4.99 7.485 -4.99 7.485 -6 9 C-6.99 8.34 -7.98 7.68 -9 7 C-8.06894211 6.01470572 -7.12987519 5.03697556 -6.1875 4.0625 C-5.66542969 3.51722656 -5.14335937 2.97195312 -4.60546875 2.41015625 C-3 1 -3 1 0 0 Z " fill="#454343" transform="translate(432,190)"/>
<path d="M0 0 C0.8125 1.6875 0.8125 1.6875 1 4 C-1.1613627 6.51185394 -3.01962439 8.50981219 -6 10 C-6 6 -6 6 -3.5625 3.3125 C-2.716875 2.549375 -1.87125 1.78625 -1 1 C-0.67 0.67 -0.34 0.34 0 0 Z " fill="#4D4D4C" transform="translate(181,171)"/>
<path d="M0 0 C2 2 2 2 2 3.9375 C0.49213949 7.0474623 -1.91625468 7.68776795 -5 9 C-4.67 7.68 -4.34 6.36 -4 5 C-3.34 5.33 -2.68 5.66 -2 6 C-1.855625 5.195625 -1.71125 4.39125 -1.5625 3.5625 C-1 1 -1 1 0 0 Z " fill="#4A4745" transform="translate(186,315)"/>
<path d="M0 0 C0 3.10551666 -0.5393715 4.35261084 -2 7 C-2.99 7 -3.98 7 -5 7 C-4.67 6.34 -4.34 5.68 -4 5 C-4.66 5 -5.32 5 -6 5 C-6.33 5.66 -6.66 6.32 -7 7 C-7 6.01 -7 5.02 -7 4 C-4.69 2.68 -2.38 1.36 0 0 Z " fill="#1B1A19" transform="translate(159,286)"/>
<path d="M0 0 C0.66 0.33 1.32 0.66 2 1 C1.67 1.66 1.34 2.32 1 3 C1.66 3 2.32 3 3 3 C2.67 3.99 2.34 4.98 2 6 C0.35 5.67 -1.3 5.34 -3 5 C-3.33 4.01 -3.66 3.02 -4 2 C-2.125 0.9375 -2.125 0.9375 0 0 Z " fill="#1C1B19" transform="translate(438,249)"/>
<path d="M0 0 C0.66 0.33 1.32 0.66 2 1 C0.53333333 5.64444444 0.53333333 5.64444444 -1.875 7.25 C-3.90387118 7.96607218 -5.89663375 8.54927866 -8 9 C-7.34 8.01 -6.68 7.02 -6 6 C-5.34 6 -4.68 6 -4 6 C-3.71125 5.38125 -3.4225 4.7625 -3.125 4.125 C-2 2 -2 2 0 0 Z " fill="#585356" transform="translate(200,248)"/>
<path d="M0 0 C0.33 1.32 0.66 2.64 1 4 C0.01 4.495 0.01 4.495 -1 5 C-1.33 5.66 -1.66 6.32 -2 7 C-4.4375 8.6875 -4.4375 8.6875 -7 10 C-7.66 9.67 -8.32 9.34 -9 9 C-7.88121617 7.82737096 -6.75476949 6.66204862 -5.625 5.5 C-4.68527344 4.52546875 -4.68527344 4.52546875 -3.7265625 3.53125 C-2 2 -2 2 0 2 C0 1.34 0 0.68 0 0 Z " fill="#727271" transform="translate(250,199)"/>
<path d="M0 0 C2.02054804 1.64169528 4.02043058 3.30911778 6 5 C6 5.33 6 5.66 6 6 C4.02 6 2.04 6 0 6 C-0.38218767 4.34385343 -0.71395102 2.67542976 -1 1 C-0.67 0.67 -0.34 0.34 0 0 Z " fill="#585858" transform="translate(452,261)"/>
<path d="M0 0 C1.14926266 0.95421808 2.29430541 1.91352045 3.4375 2.875 C4.07558594 3.40867187 4.71367187 3.94234375 5.37109375 4.4921875 C7 6 7 6 8 8 C2.25 6.25 2.25 6.25 0 4 C0 2.68 0 1.36 0 0 Z " fill="#828281" transform="translate(466,275)"/>
<path d="M0 0 C0.86625 0.37125 0.86625 0.37125 1.75 0.75 C0.76 1.08 -0.23 1.41 -1.25 1.75 C-1.58 2.74 -1.91 3.73 -2.25 4.75 C-2.91 4.75 -3.57 4.75 -4.25 4.75 C-4.58 5.74 -4.91 6.73 -5.25 7.75 C-6 6 -6 6 -6.25 3.75 C-3.25 -0.36111111 -3.25 -0.36111111 0 0 Z " fill="#696867" transform="translate(312.25,198.25)"/>
<path d="M0 0 C0.66 0.33 1.32 0.66 2 1 C2 1.66 2 2.32 2 3 C2.66 3.33 3.32 3.66 4 4 C3.67 4.66 3.34 5.32 3 6 C1.02 5.34 -0.96 4.68 -3 4 C-2.67 3.01 -2.34 2.02 -2 1 C-1.34 0.67 -0.68 0.34 0 0 Z " fill="#363533" transform="translate(189,160)"/>
<path d="M0 0 C0 2.66420516 -0.09162237 4.52260646 -1 7 C-1.99 7.33 -2.98 7.66 -4 8 C-4.66 7.34 -5.32 6.68 -6 6 C-4.02 4.02 -2.04 2.04 0 0 Z " fill="#606060" transform="translate(135,159)"/>
<path d="M0 0 C-1.25 1.5 -1.25 1.5 -3 3 C-6.11257569 3 -8.10765685 2.82638376 -11 2 C-3.57142857 -1.57142857 -3.57142857 -1.57142857 0 0 Z " fill="#616161" transform="translate(192,115)"/>
<path d="M0 0 C5.75 0.875 5.75 0.875 8 2 C8 2.66 8 3.32 8 4 C6.68 4.33 5.36 4.66 4 5 C2.68 3.35 1.36 1.7 0 0 Z " fill="#4A4849" transform="translate(420,292)"/>
<path d="M0 0 C0.66 1.32 1.32 2.64 2 4 C1.01 4.33 0.02 4.66 -1 5 C-1.33 5.99 -1.66 6.98 -2 8 C-2.66 6.68 -3.32 5.36 -4 4 C-2.68 2.68 -1.36 1.36 0 0 Z " fill="#4A4947" transform="translate(300,207)"/>
<path d="M0 0 C0.33 0.99 0.66 1.98 1 3 C1.99 3.33 2.98 3.66 4 4 C3.01 4.495 3.01 4.495 2 5 C-0.35981813 4.06421005 -2.69631264 3.06652192 -5 2 C-5 1.67 -5 1.34 -5 1 C-3.35 0.67 -1.7 0.34 0 0 Z " fill="#585655" transform="translate(84,332)"/>
<path d="M0 0 C0.66 0 1.32 0 2 0 C2 0.99 2 1.98 2 3 C2.66 3.33 3.32 3.66 4 4 C2.02 4.66 0.04 5.32 -2 6 C-1.125 1.125 -1.125 1.125 0 0 Z " fill="#403A3A" transform="translate(173,323)"/>
<path d="M0 0 C0.66 0.33 1.32 0.66 2 1 C1.67 1.99 1.34 2.98 1 4 C1.99 4.33 2.98 4.66 4 5 C2.1875 5.6875 2.1875 5.6875 0 6 C-1.75 4.5625 -1.75 4.5625 -3 3 C-2.01 2.01 -1.02 1.02 0 0 Z " fill="#4A4748" transform="translate(498,281)"/>
<path d="M0 0 C0.66 0.33 1.32 0.66 2 1 C1.67 2.65 1.34 4.3 1 6 C0.01 5.67 -0.98 5.34 -2 5 C-2.99 5.495 -2.99 5.495 -4 6 C-2.84826645 3.53199953 -1.95216435 1.95216435 0 0 Z " fill="#555353" transform="translate(418,202)"/>
<path d="M0 0 C0.33 0.66 0.66 1.32 1 2 C1.66 2.33 2.32 2.66 3 3 C0.03 5.475 0.03 5.475 -3 8 C-2.67 6.35 -2.34 4.7 -2 3 C-1.34 3 -0.68 3 0 3 C0 2.01 0 1.02 0 0 Z " fill="#6B6767" transform="translate(324,183)"/>
<path d="M0 0 C1.0625 1.8125 1.0625 1.8125 2 4 C1.67 4.99 1.34 5.98 1 7 C-1.475 6.01 -1.475 6.01 -4 5 C-3.67 4.34 -3.34 3.68 -3 3 C-2.34 3 -1.68 3 -1 3 C-0.67 2.01 -0.34 1.02 0 0 Z " fill="#595657" transform="translate(174,121)"/>
<path d="M0 0 C0.5534764 2.07553648 1 3.84365964 1 6 C-0.65 6.33 -2.3 6.66 -4 7 C-2.92598892 4.08482708 -2.22189824 2.22189824 0 0 Z " fill="#6B696A" transform="translate(59,237)"/>
<path d="M0 0 C1 2 1 2 0.375 4.0625 C-1 6 -1 6 -3.625 6.75 C-4.800625 6.87375 -4.800625 6.87375 -6 7 C-5.67 6.01 -5.34 5.02 -5 4 C-4.34 4 -3.68 4 -3 4 C-3 3.34 -3 2.68 -3 2 C-2.01 1.34 -1.02 0.68 0 0 Z " fill="#7A7779" transform="translate(214,235)"/>
<path d="M0 0 C0 1.65 0 3.3 0 5 C-0.99 5.495 -0.99 5.495 -2 6 C-2.99 5.01 -3.98 4.02 -5 3 C-2.25 0 -2.25 0 0 0 Z " fill="#1A1919" transform="translate(237,216)"/>
<path d="M0 0 C0.66 0.99 1.32 1.98 2 3 C0.35 4.32 -1.3 5.64 -3 7 C-2.25 2.25 -2.25 2.25 0 0 Z " fill="#585756" transform="translate(231,277)"/>
<path d="M0 0 C0.99 0.33 1.98 0.66 3 1 C1.35 2.65 -0.3 4.3 -2 6 C-2.33 4.68 -2.66 3.36 -3 2 C-2.01 1.34 -1.02 0.68 0 0 Z " fill="#626160" transform="translate(101,253)"/>
<path d="M0 0 C0.99 0.66 1.98 1.32 3 2 C1.1875 3.5625 1.1875 3.5625 -1 5 C-1.99 4.67 -2.98 4.34 -4 4 C-2.68 2.68 -1.36 1.36 0 0 Z " fill="#191917" transform="translate(226,225)"/>
<path d="M0 0 C-1.65 1.65 -3.3 3.3 -5 5 C-5.33 3.35 -5.66 1.7 -6 0 C-3.50907189 -1.24546405 -2.58919267 -0.7767578 0 0 Z " fill="#474747" transform="translate(148,209)"/>
<path d="M0 0 C1.65 0 3.3 0 5 0 C4.67 0.99 4.34 1.98 4 3 C2.35 3.33 0.7 3.66 -1 4 C-0.67 2.68 -0.34 1.36 0 0 Z " fill="#464646" transform="translate(496,205)"/>
<path d="M0 0 C0.66 0 1.32 0 2 0 C2.33 1.65 2.66 3.3 3 5 C1.35 5 -0.3 5 -2 5 C-1.125 1.125 -1.125 1.125 0 0 Z " fill="#434341" transform="translate(265,184)"/>
</svg>
